<?xml version="1.0" encoding="UTF-8"?>
<svg data-bbox="0 0.406 1189.5 1682.688" height="2245" viewBox="0 0 1190.25 1683.75" width="1587" xmlns="http://www.w3.org/2000/svg" data-type="color">
    <g>
        <defs>
            <clipPath id="bff6d46a-342b-46c2-b228-2070cd7dc737">
                <path d="M0 .406h1189.5v1682.688H0Zm0 0"/>
            </clipPath>
            <clipPath id="7af7c06b-801b-48cd-8e04-54328aad44ad">
                <path d="M0 .406h1189.2v1682.262H0Zm0 0"/>
            </clipPath>
            <clipPath id="7749a73f-258f-492e-87b2-436d715eb263">
                <path d="M472 790h265v191H472Zm0 0"/>
            </clipPath>
            <clipPath id="9592c71d-3e79-476d-8d6f-d2700cba1b3e">
                <path d="M552.102 941.95c9.949 0 18.164-1.52 24.609-4.524 6.445-3.008 11.934-9.114 16.426-18.32 2.945-5.918 4.867-12.368 5.672-19.34.808-6.973 1.242-16.891 1.242-29.723v-42.492h-97.758v30.37q.001 24.552 2.14 38.684c1.422 9.422 4.43 17.727 9.047 24.918 4.622 7.036 9.86 12.211 15.747 15.465 5.89 3.258 13.484 4.899 22.843 4.899m119.95-13.266c6.382 0 11.902-1.144 16.582-3.41 4.68-2.262 8.367-5.918 11.093-10.941 3.196-6.043 5.145-12.77 5.86-20.176.71-7.407 1.054-17.668 1.054-30.746V827.55h-77.3v42.46q0 17.528 1.671 25.848c1.118 5.551 3.442 11.254 7.008 17.172 3.438 5.672 7.934 9.672 13.48 12.09 5.548 2.414 12.4 3.594 20.552 3.594m-118.493 52.133c-13.14 0-24.734-2.637-34.777-7.934-10.043-5.3-18.348-12.398-24.855-21.324-7.813-10.57-13.36-21.883-16.582-33.973-3.223-12.086-4.868-27.676-4.868-46.8V790.23H736.52v74.512c0 19.992-.622 34.992-1.86 44.973-1.242 9.98-4.156 19.59-8.773 28.762-5.082 10.074-11.715 17.421-19.93 22.07-8.215 4.648-17.852 6.973-28.98 6.973-12.399 0-23.493-3.504-33.317-10.477-9.828-6.973-17.48-16.645-23.031-28.98h-1.426c-4.246 16.738-12.023 29.726-23.336 38.898-11.316 9.176-25.418 13.793-42.34 13.793"/>
            </clipPath>
            <clipPath id="54604385-bb6c-45dc-8ac7-32ca8ddb027b">
                <path d="M186.176 364H508v429H186.176Zm0 0"/>
            </clipPath>
            <clipPath id="528cd66a-9aef-454a-abad-c1ba89a2ec30">
                <path d="m472.105 650.043 35.672-61.895V426.574l-35.672-61.867c-102.87 59.2-271.328 236.242-285.894 428.035 37.441-66.824 171.957-173.195 285.894-142.668"/>
            </clipPath>
            <clipPath id="8695cc9b-e6e6-4fda-87bd-83b96894efa9">
                <path d="M489.504 516h513.805v220H489.504Zm0 0"/>
            </clipPath>
            <clipPath id="51f368db-6f46-49a7-adee-8c9ca333b677">
                <path d="M1003.29 693.746c-76.622.992-235.962-62.27-266.493-176.234l-71.41.031-139.973 80.8-35.766 61.837c102.715 59.476 340.227 116.847 513.641 33.566M665.355 517.543l2.106-1.211Zm0 0"/>
            </clipPath>
            <clipPath id="288f4a36-a6c0-4888-abc2-bf8ca4dc51cd">
                <path d="M489.504 35.621H737V498H489.504Zm0 0"/>
            </clipPath>
            <clipPath id="7b2d79ff-70f5-4556-aa03-5a901ac23849">
                <path d="M736.797 497.242c.156-118.68-68.93-353.09-227.777-461.601 39.175 65.863 64.066 235.496-19.372 318.933l35.766 61.801 139.941 80.805Zm-211.383-80.867-2.105-1.207Zm0 0"/>
            </clipPath>
            <clipPath id="29346483-5184-4929-aae7-a9c05217116c">
                <path d="M528 469h76.027v77H528Zm0 0"/>
            </clipPath>
            <clipPath id="5743a488-ad0c-4f96-91e9-c432e944c7b6">
                <path d="M566.172 469.469c20.89 0 37.844 16.957 37.844 37.875 0 20.922-16.953 37.875-37.844 37.875-20.985 0-37.875-16.953-37.875-37.875 0-20.918 16.89-37.875 37.875-37.875"/>
            </clipPath>
            <clipPath id="1a9e861c-156b-4a4d-9ae6-d478850135a0">
                <path d="M472.441 1018.004h264.075v37.316H472.44Zm129.215 37.316h31.242v129.215h-31.242Zm-129.215 0h31.243v138.668H472.44Zm232.832 0h31.243v138.668h-31.243Zm0 0"/>
            </clipPath>
            <clipPath id="4f9bf62e-8296-4e05-9037-10843766e24e">
                <path d="M467.684 1220.176h273.574V1412H467.684Zm0 0"/>
            </clipPath>
            <clipPath id="07ba911f-7d86-4d32-93f7-a9c424d54bb8">
                <path d="M467.73 1313.102c0-20.364 1.985-37.692 5.922-51.946 3.934-14.258 8.832-27.68 14.63-40.261h43.948v2.632c-10.847 12.305-19.277 26.254-25.23 41.844-5.95 15.59-8.926 30.621-8.926 45.063 0 20.613 4.059 36.203 12.149 46.742s18.754 15.836 31.988 15.836c10.539 0 19.094-2.758 25.695-8.305 6.602-5.547 11.528-14.32 14.723-26.375 2.355-8.68 4.305-16.613 5.855-23.773s3.598-16.149 6.2-26.965c2.355-9.672 5.363-18.352 9.05-26.035 3.688-7.688 8.461-14.477 14.352-20.364 5.793-5.797 12.613-10.293 20.484-13.484 7.875-3.191 16.926-4.805 27.215-4.805 21.387 0 39.332 8.867 53.805 26.594 14.476 17.73 21.637 40.355 21.637 67.879 0 15.715-1.489 30.59-4.434 44.601-2.945 14.008-7.16 26.997-12.613 38.926h-42.063v-2.82c7.688-8.926 14.414-20.363 20.149-34.309 5.734-13.949 8.617-28.578 8.617-43.918q0-26.037-11.438-42.03c-7.625-10.661-17.636-16.024-30.035-16.024-11.219 0-20.144 3.132-26.746 9.422-6.601 6.293-11.469 15.406-14.539 27.34-2.012 7.902-4.277 17.601-6.816 29.038-2.543 11.438-4.868 20.954-7.004 28.485-5.551 19.37-13.95 33.504-25.168 42.43-11.223 8.93-25.043 13.39-41.473 13.39q-15.433.001-30.496-6.695c-10.043-4.461-18.566-10.723-25.508-18.75-7.687-9.05-13.61-19.246-17.73-30.652s-6.2-25.633-6.2-42.711"/>
            </clipPath>
            <clipPath id="8a298a64-3fc2-4a8b-a2ef-e33a75af5f15">
                <path d="M705.273 1421.363h31.243v94.41h-31.243Zm-232.832 94.41h264.075v37.286H472.44Zm232.832 37.286h31.243v94.379h-31.243Zm0 0"/>
            </clipPath>
        </defs>
        <g clip-path="url(#bff6d46a-342b-46c2-b228-2070cd7dc737)">
            <path d="M0 .406h1189.5v1682.688H0Zm0 0" fill="#ffffff" data-color="1"/>
        </g>
        <g clip-path="url(#7af7c06b-801b-48cd-8e04-54328aad44ad)">
            <path d="M0 .406h1189.2v1682.262H0Zm0 0" fill="#ffffff" data-color="1"/>
        </g>
        <g clip-path="url(#7749a73f-258f-492e-87b2-436d715eb263)">
            <g clip-path="url(#9592c71d-3e79-476d-8d6f-d2700cba1b3e)">
                <path d="M1018.785 20.145v974.988H170.7V20.145Zm0 0" fill="#0071b9" data-color="2"/>
            </g>
        </g>
        <g clip-path="url(#54604385-bb6c-45dc-8ac7-32ca8ddb027b)">
            <g clip-path="url(#528cd66a-9aef-454a-abad-c1ba89a2ec30)">
                <path d="M1018.785 20.145v974.988H170.7V20.145Zm0 0" fill="#0071b9" data-color="2"/>
            </g>
        </g>
        <g clip-path="url(#8695cc9b-e6e6-4fda-87bd-83b96894efa9)">
            <g clip-path="url(#51f368db-6f46-49a7-adee-8c9ca333b677)">
                <path d="M1018.785 20.145v974.988H170.7V20.145Zm0 0" fill="#ffa615" data-color="3"/>
            </g>
        </g>
        <g clip-path="url(#288f4a36-a6c0-4888-abc2-bf8ca4dc51cd)">
            <g clip-path="url(#7b2d79ff-70f5-4556-aa03-5a901ac23849)">
                <path d="M1018.785 20.145v974.988H170.7V20.145Zm0 0" fill="#75bf1e" data-color="4"/>
            </g>
        </g>
        <g clip-path="url(#29346483-5184-4929-aae7-a9c05217116c)">
            <g clip-path="url(#5743a488-ad0c-4f96-91e9-c432e944c7b6)">
                <path d="M1018.785 20.145v974.988H170.7V20.145Zm0 0" fill="#0071b9" data-color="2"/>
            </g>
        </g>
        <g clip-path="url(#1a9e861c-156b-4a4d-9ae6-d478850135a0)">
            <path d="M756.723 1002.508v660.148h-304.5v-660.148Zm0 0" fill="#0071b9" data-color="2"/>
        </g>
        <g clip-path="url(#4f9bf62e-8296-4e05-9037-10843766e24e)">
            <g clip-path="url(#07ba911f-7d86-4d32-93f7-a9c424d54bb8)">
                <path d="M756.723 1002.508v660.148h-304.5v-660.148Zm0 0" fill="#0071b9" data-color="2"/>
            </g>
        </g>
        <g clip-path="url(#8a298a64-3fc2-4a8b-a2ef-e33a75af5f15)">
            <path d="M756.723 1002.508v660.148h-304.5v-660.148Zm0 0" fill="#0071b9" data-color="2"/>
        </g>
        <path d="m421.956 1364.23-71-24.422v-10.203l71-24.406v10.11l-58.937 19.64 58.937 19.64Zm0 0" fill="#0071b9" data-color="2"/>
        <path d="M350.956 1395.83v-27.562h7.25v9.062h56.5v-9.062h7.25v27.562h-7.25v-9.062h-56.5v9.062Zm0 0" fill="#0071b9" data-color="2"/>
        <path d="M350.956 1407.454h71v44.39h-8.39v-34.952h-19.454v32.562h-8.39v-32.562h-26.375v34.953h-8.391Zm0 0" fill="#0071b9" data-color="2"/>
        <path d="M350.956 1513.011v-10.593l61.219-31.375h-61.219v-8.813h71v13.39l-56.219 28.563h56.219v8.828Zm0 0" fill="#0071b9" data-color="2"/>
        <path d="M350.956 1578.178v-10.593l61.219-31.375h-61.219v-8.813h71v13.39l-56.219 28.563h56.219v8.828Zm0 0" fill="#0071b9" data-color="2"/>
        <path d="m350.956 1584.878 71 23.937v11.64l-71 23.938v-9.968l19.844-6.438v-27.125l-19.844-6.437Zm27.89 40.484 33.485-10.953-33.484-10.922Zm0 0" fill="#0071b9" data-color="2"/>
    </g>
</svg>
